STARTFONT 2.1
FONT -DIGITAL-VT220-Bold-I-Normal-136col-20-200-150-75-c-170-iso10646-1
SIZE 20 75 75
FONTBOUNDINGBOX 23 20 -3 -4
STARTPROPERTIES 21
FOUNDRY "DIGITAL"
FAMILY_NAME "vt220"
WEIGHT_NAME "Bold"
RELATIVE_SETWIDTH 50
SLANT "I"
SETWIDTH_NAME "Normal"
ADD_STYLE_NAME "136col"
PIXEL_SIZE 20
POINT_SIZE 200
RESOLUTION_X 75
RESOLUTION_Y 75
SPACING "c"
CHARSET_REGISTRY "ISO10646"
CHARSET_ENCODING "1"
CAP_HEIGHT 14
X_HEIGHT 10
WEIGHT 10
QUAD_WIDTH 17
FONT_ASCENT 16
FONT_DESCENT 4
AVERAGE_WIDTH 170
ENDPROPERTIES
CHARS 237
STARTCHAR U+00FD
ENCODING 253
SWIDTH 1000 0
DWIDTH 17 0
BBX 23 20 -3 -4
BITMAP
000000
000000
000000
000000
000000
000000
000000
000000
000000
000000
000000
000000
000000
000000
000000
000000
000000
000000
000000
000000
ENDCHAR
STARTCHAR U+25A1
ENCODING 9633
SWIDTH 1000 0
DWIDTH 17 0
BBX 23 20 -3 -4
BITMAP
000000
000000
07fff8
0ffff0
0f00f0
0f00f0
1e01e0
1e01e0
1e01e0
3c03c0
3c03c0
3c03c0
780780
780780
7fff80
ffff00
000000
000000
000000
000000
ENDCHAR
STARTCHAR U+00FE
ENCODING 254
SWIDTH 1000 0
DWIDTH 17 0
BBX 23 20 -3 -4
BITMAP
000000
000000
078000
0f0000
0f0000
0f0000
1eff80
1eff80
1f81e0
3f03c0
3f03c0
3f03c0
7bfe00
7bfe00
780000
f00000
f00000
f00000
e00000
e00000
ENDCHAR
STARTCHAR U+00FF
ENCODING 255
SWIDTH 1000 0
DWIDTH 17 0
BBX 23 20 -3 -4
BITMAP
000000
000000
01e1e0
03c3c0
000000
000000
1e0780
1e0780
1e0780
3c0f00
3c3f00
3c3f00
1fee00
1fee00
001e00
003c00
f03c00
f03c00
7fe000
7fe000
ENDCHAR
STARTCHAR U+00FC
ENCODING 252
SWIDTH 1000 0
DWIDTH 17 0
BBX 23 20 -3 -4
BITMAP
000000
000000
01e1e0
03c3c0
000000
000000
1e0780
1e0780
1e0780
3c0f00
3c0f00
3c0f00
781e00
781e00
1ffb80
3ff700
000000
000000
000000
000000
ENDCHAR
STARTCHAR U+00FB
ENCODING 251
SWIDTH 1000 0
DWIDTH 17 0
BBX 23 20 -3 -4
BITMAP
007f80
007f80
01e1e0
03c3c0
000000
000000
1e0780
1e0780
1e0780
3c0f00
3c0f00
3c0f00
781e00
781e00
1ffb80
3ff700
000000
000000
000000
000000
ENDCHAR
STARTCHAR U+00FA
ENCODING 250
SWIDTH 1000 0
DWIDTH 17 0
BBX 23 20 -3 -4
BITMAP
000000
000000
001f80
003f00
03f000
03f000
1e0780
1e0780
1e0780
3c0f00
3c0f00
3c0f00
781e00
781e00
1ffb80
3ff700
000000
000000
000000
000000
ENDCHAR
STARTCHAR U+00F9
ENCODING 249
SWIDTH 1000 0
DWIDTH 17 0
BBX 23 20 -3 -4
BITMAP
000000
000000
01f800
03f000
003f00
003f00
1e0780
1e0780
1e0780
3c0f00
3c0f00
3c0f00
781e00
781e00
1ffb80
3ff700
000000
000000
000000
000000
ENDCHAR
STARTCHAR U+00F8
ENCODING 248
SWIDTH 1000 0
DWIDTH 17 0
BBX 23 20 -3 -4
BITMAP
000000
000000
000000
000000
0000f0
0000f0
07ff80
07ff80
1e1ee0
3c3dc0
3cf3c0
3cf3c0
7b8780
7b8780
1ffe00
3ffc00
f00000
f00000
000000
000000
ENDCHAR
STARTCHAR U+0153
ENCODING 339
SWIDTH 1000 0
DWIDTH 17 0
BBX 23 20 -3 -4
BITMAP
000000
000000
000000
000000
000000
000000
07ef80
07ef80
1e79e0
3cf3c0
3cffc0
3cffc0
79e000
79e000
1fbf80
3f7f00
000000
000000
000000
000000
ENDCHAR
STARTCHAR U+00F6
ENCODING 246
SWIDTH 1000 0
DWIDTH 17 0
BBX 23 20 -3 -4
BITMAP
000000
000000
01e1e0
03c3c0
000000
000000
07ff80
07ff80
1e01e0
3c03c0
3c03c0
3c03c0
780780
780780
1ffe00
3ffc00
000000
000000
000000
000000
ENDCHAR
STARTCHAR U+00F5
ENCODING 245
SWIDTH 1000 0
DWIDTH 17 0
BBX 23 20 -3 -4
BITMAP
01f9e0
01f9e0
079f80
0f3f00
000000
000000
07ff80
07ff80
1e01e0
3c03c0
3c03c0
3c03c0
780780
780780
1ffe00
3ffc00
000000
000000
000000
000000
ENDCHAR
STARTCHAR U+00F4
ENCODING 244
SWIDTH 1000 0
DWIDTH 17 0
BBX 23 20 -3 -4
BITMAP
007f80
007f80
01e1e0
03c3c0
000000
000000
07ff80
07ff80
1e01e0
3c03c0
3c03c0
3c03c0
780780
780780
1ffe00
3ffc00
000000
000000
000000
000000
ENDCHAR
STARTCHAR U+00F3
ENCODING 243
SWIDTH 1000 0
DWIDTH 17 0
BBX 23 20 -3 -4
BITMAP
000000
000000
001f80
003f00
03f000
03f000
07ff80
07ff80
1e01e0
3c03c0
3c03c0
3c03c0
780780
780780
1ffe00
3ffc00
000000
000000
000000
000000
ENDCHAR
STARTCHAR U+00F2
ENCODING 242
SWIDTH 1000 0
DWIDTH 17 0
BBX 23 20 -3 -4
BITMAP
000000
000000
007e00
00fc00
000fc0
000fc0
07ff80
07ff80
1e01e0
3c03c0
3c03c0
3c03c0
780780
780780
1ffe00
3ffc00
000000
000000
000000
000000
ENDCHAR
STARTCHAR U+00F1
ENCODING 241
SWIDTH 1000 0
DWIDTH 17 0
BBX 23 20 -3 -4
BITMAP
01f9e0
01f9e0
079f80
0f3f00
000000
000000
1eff80
1eff80
1f81e0
3f03c0
3c03c0
3c03c0
780780
780780
780780
f00f00
000000
000000
000000
000000
ENDCHAR
STARTCHAR U+00F0
ENCODING 240
SWIDTH 1000 0
DWIDTH 17 0
BBX 23 20 -3 -4
BITMAP
001e78
001e78
0007e0
000fc0
003cf0
003cf0
07fee0
07fee0
1e07e0
3c0fc0
3c03c0
3c03c0
781e00
781e00
1ff800
3ff000
000000
000000
000000
000000
ENDCHAR
STARTCHAR U+00EF
ENCODING 239
SWIDTH 1000 0
DWIDTH 17 0
BBX 23 20 -3 -4
BITMAP
000000
000000
01e1e0
03c3c0
000000
000000
01f800
01f800
007800
00f000
00f000
00f000
01e000
01e000
1ffe00
3ffc00
000000
000000
000000
000000
ENDCHAR
STARTCHAR U+00EE
ENCODING 238
SWIDTH 1000 0
DWIDTH 17 0
BBX 23 20 -3 -4
BITMAP
007f80
007f80
01e1e0
03c3c0
000000
000000
01f800
01f800
007800
00f000
00f000
00f000
01e000
01e000
1ffe00
3ffc00
000000
000000
000000
000000
ENDCHAR
STARTCHAR U+00ED
ENCODING 237
SWIDTH 1000 0
DWIDTH 17 0
BBX 23 20 -3 -4
BITMAP
000000
000000
001f80
003f00
03f000
03f000
01f800
01f800
007800
00f000
00f000
00f000
01e000
01e000
1ffe00
3ffc00
000000
000000
000000
000000
ENDCHAR
STARTCHAR U+00EC
ENCODING 236
SWIDTH 1000 0
DWIDTH 17 0
BBX 23 20 -3 -4
BITMAP
000000
000000
01f800
03f000
003f00
003f00
01f800
01f800
007800
00f000
00f000
00f000
01e000
01e000
1ffe00
3ffc00
000000
000000
000000
000000
ENDCHAR
STARTCHAR U+00EB
ENCODING 235
SWIDTH 1000 0
DWIDTH 17 0
BBX 23 20 -3 -4
BITMAP
000000
000000
01e1e0
03c3c0
000000
000000
07ff80
07ff80
1e01e0
3c03c0
3fffc0
3fffc0
780000
780000
1ffe00
3ffc00
000000
000000
000000
000000
ENDCHAR
STARTCHAR U+00EA
ENCODING 234
SWIDTH 1000 0
DWIDTH 17 0
BBX 23 20 -3 -4
BITMAP
007f80
007f80
01e1e0
03c3c0
000000
000000
07ff80
07ff80
1e01e0
3c03c0
3fffc0
3fffc0
780000
780000
1ffe00
3ffc00
000000
000000
000000
000000
ENDCHAR
STARTCHAR U+00E9
ENCODING 233
SWIDTH 1000 0
DWIDTH 17 0
BBX 23 20 -3 -4
BITMAP
000000
000000
001f80
003f00
03f000
03f000
07ff80
07ff80
1e01e0
3c03c0
3fffc0
3fffc0
780000
780000
1ffe00
3ffc00
000000
000000
000000
000000
ENDCHAR
STARTCHAR U+00E8
ENCODING 232
SWIDTH 1000 0
DWIDTH 17 0
BBX 23 20 -3 -4
BITMAP
000000
000000
007e00
00fc00
000fc0
000fc0
07ff80
07ff80
1e01e0
3c03c0
3fffc0
3fffc0
780000
780000
1ffe00
3ffc00
000000
000000
000000
000000
ENDCHAR
STARTCHAR U+00E7
ENCODING 231
SWIDTH 1000 0
DWIDTH 17 0
BBX 23 20 -3 -4
BITMAP
000000
000000
000000
000000
000000
000000
07ff80
07ff80
1e01e0
3c03c0
3c0000
3c0000
780780
780780
1ffe00
3ffc00
00f000
00f000
1fe000
1fe000
ENDCHAR
STARTCHAR U+00E6
ENCODING 230
SWIDTH 1000 0
DWIDTH 17 0
BBX 23 20 -3 -4
BITMAP
000000
000000
000000
000000
000000
000000
07ef80
07ef80
0079e0
00f3c0
0fffc0
0fffc0
79e000
79e000
1fff80
3fff00
000000
000000
000000
000000
ENDCHAR
STARTCHAR U+00E5
ENCODING 229
SWIDTH 1000 0
DWIDTH 17 0
BBX 23 20 -3 -4
BITMAP
007f80
007f80
01e1e0
03c3c0
00ff00
00ff00
07ff80
07ff80
0001e0
0003c0
0fffc0
0fffc0
781f80
781f80
1ffb80
3ff700
000000
000000
000000
000000
ENDCHAR
STARTCHAR U+00E4
ENCODING 228
SWIDTH 1000 0
DWIDTH 17 0
BBX 23 20 -3 -4
BITMAP
000000
000000
01e1e0
03c3c0
000000
000000
07ff80
07ff80
0001e0
0003c0
0fffc0
0fffc0
781f80
781f80
1ffb80
3ff700
000000
000000
000000
000000
ENDCHAR
STARTCHAR U+00E3
ENCODING 227
SWIDTH 1000 0
DWIDTH 17 0
BBX 23 20 -3 -4
BITMAP
007e78
007e78
01e7e0
03cfc0
000000
000000
07ff80
07ff80
0001e0
0003c0
0fffc0
0fffc0
781f80
781f80
1ffb80
3ff700
000000
000000
000000
000000
ENDCHAR
STARTCHAR U+00E2
ENCODING 226
SWIDTH 1000 0
DWIDTH 17 0
BBX 23 20 -3 -4
BITMAP
007f80
007f80
01e1e0
03c3c0
000000
000000
07ff80
07ff80
0001e0
0003c0
0fffc0
0fffc0
781f80
781f80
1ffb80
3ff700
000000
000000
000000
000000
ENDCHAR
STARTCHAR U+00E1
ENCODING 225
SWIDTH 1000 0
DWIDTH 17 0
BBX 23 20 -3 -4
BITMAP
000000
000000
001f80
003f00
03f000
03f000
07ff80
07ff80
0001e0
0003c0
0fffc0
0fffc0
781f80
781f80
1ffb80
3ff700
000000
000000
000000
000000
ENDCHAR
STARTCHAR U+00E0
ENCODING 224
SWIDTH 1000 0
DWIDTH 17 0
BBX 23 20 -3 -4
BITMAP
000000
000000
007e00
00fc00
000fc0
000fc0
07ff80
07ff80
0001e0
0003c0
0fffc0
0fffc0
781f80
781f80
1ffb80
3ff700
000000
000000
000000
000000
ENDCHAR
STARTCHAR U+00DF
ENCODING 223
SWIDTH 1000 0
DWIDTH 17 0
BBX 23 20 -3 -4
BITMAP
000000
000000
007f80
00ff00
03c3c0
03c3c0
1e0780
1e0780
1efe00
3dfc00
3c0f00
3c0f00
7b8780
7b8780
79fe00
f3fc00
f00000
f00000
000000
000000
ENDCHAR
STARTCHAR U+00DE
ENCODING 222
SWIDTH 1000 0
DWIDTH 17 0
BBX 23 20 -3 -4
BITMAP
000000
000000
07e000
0fc000
03ffc0
03ffc0
0781e0
0781e0
0781e0
0f03c0
0f03c0
0f03c0
1ffe00
1ffe00
7e0000
fc0000
000000
000000
000000
000000
ENDCHAR
STARTCHAR U+0178
ENCODING 376
SWIDTH 1000 0
DWIDTH 17 0
BBX 23 20 -3 -4
BITMAP
01e1e0
01e1e0
000000
000000
0f00f0
0f00f0
078780
078780
01ee00
03dc00
00f000
00f000
01e000
01e000
01e000
03c000
000000
000000
000000
000000
ENDCHAR
STARTCHAR U+00DC
ENCODING 220
SWIDTH 1000 0
DWIDTH 17 0
BBX 23 20 -3 -4
BITMAP
01e1e0
01e1e0
000000
000000
0f00f0
0f00f0
1e01e0
1e01e0
1e01e0
3c03c0
3c03c0
3c03c0
780780
780780
1ffe00
3ffc00
000000
000000
000000
000000
ENDCHAR
STARTCHAR U+00DB
ENCODING 219
SWIDTH 1000 0
DWIDTH 17 0
BBX 23 20 -3 -4
BITMAP
001e00
001e00
007b80
00f700
0f00f0
0f00f0
1e01e0
1e01e0
1e01e0
3c03c0
3c03c0
3c03c0
780780
780780
1ffe00
3ffc00
000000
000000
000000
000000
ENDCHAR
STARTCHAR U+00DA
ENCODING 218
SWIDTH 1000 0
DWIDTH 17 0
BBX 23 20 -3 -4
BITMAP
0007e0
0007e0
007e00
00fc00
0f00f0
0f00f0
1e01e0
1e01e0
1e01e0
3c03c0
3c03c0
3c03c0
780780
780780
1ffe00
3ffc00
000000
000000
000000
000000
ENDCHAR
STARTCHAR U+00D9
ENCODING 217
SWIDTH 1000 0
DWIDTH 17 0
BBX 23 20 -3 -4
BITMAP
01f800
01f800
001f80
003f00
0f00f0
0f00f0
1e01e0
1e01e0
1e01e0
3c03c0
3c03c0
3c03c0
780780
780780
1ffe00
3ffc00
000000
000000
000000
000000
ENDCHAR
STARTCHAR U+00D8
ENCODING 216
SWIDTH 1000 0
DWIDTH 17 0
BBX 23 20 -3 -4
BITMAP
000078
000078
01ffe0
03ffc0
0f03f0
0f03f0
1e1ee0
1e1ee0
1e79e0
3cf3c0
3dc3c0
3dc3c0
7e0780
7e0780
1ffe00
3ffc00
f00000
f00000
000000
000000
ENDCHAR
STARTCHAR U+0152
ENCODING 338
SWIDTH 1000 0
DWIDTH 17 0
BBX 23 20 -3 -4
BITMAP
000000
000000
01fbf8
03f7f0
0f3c00
0f3c00
1e7800
1e7800
1e7f80
3cff00
3cf000
3cf000
79e000
79e000
1fbf80
3f7f00
000000
000000
000000
000000
ENDCHAR
STARTCHAR U+00D6
ENCODING 214
SWIDTH 1000 0
DWIDTH 17 0
BBX 23 20 -3 -4
BITMAP
01e1e0
01e1e0
000000
000000
03ffc0
03ffc0
1e01e0
1e01e0
1e01e0
3c03c0
3c03c0
3c03c0
780780
780780
1ffe00
3ffc00
000000
000000
000000
000000
ENDCHAR
STARTCHAR U+00D5
ENCODING 213
SWIDTH 1000 0
DWIDTH 17 0
BBX 23 20 -3 -4
BITMAP
01f9e0
01f9e0
079f80
0f3f00
03ffc0
03ffc0
1e01e0
1e01e0
1e01e0
3c03c0
3c03c0
3c03c0
780780
780780
1ffe00
3ffc00
000000
000000
000000
000000
ENDCHAR
STARTCHAR U+00D4
ENCODING 212
SWIDTH 1000 0
DWIDTH 17 0
BBX 23 20 -3 -4
BITMAP
007f80
007f80
01e1e0
03c3c0
03ffc0
03ffc0
1e01e0
1e01e0
1e01e0
3c03c0
3c03c0
3c03c0
780780
780780
1ffe00
3ffc00
000000
000000
000000
000000
ENDCHAR
STARTCHAR U+00D3
ENCODING 211
SWIDTH 1000 0
DWIDTH 17 0
BBX 23 20 -3 -4
BITMAP
001f80
001f80
01f800
03f000
03ffc0
03ffc0
1e01e0
1e01e0
1e01e0
3c03c0
3c03c0
3c03c0
780780
780780
1ffe00
3ffc00
000000
000000
000000
000000
ENDCHAR
STARTCHAR U+00D2
ENCODING 210
SWIDTH 1000 0
DWIDTH 17 0
BBX 23 20 -3 -4
BITMAP
007e00
007e00
0007e0
000fc0
03ffc0
03ffc0
1e01e0
1e01e0
1e01e0
3c03c0
3c03c0
3c03c0
780780
780780
1ffe00
3ffc00
000000
000000
000000
000000
ENDCHAR
STARTCHAR U+00D1
ENCODING 209
SWIDTH 1000 0
DWIDTH 17 0
BBX 23 20 -3 -4
BITMAP
007e78
007e78
01e7e0
03cfc0
0fc0f0
0fc0f0
1ee1e0
1ee1e0
1e79e0
3cf3c0
3c3dc0
3c3dc0
781f80
781f80
780780
f00f00
000000
000000
000000
000000
ENDCHAR
STARTCHAR U+00D0
ENCODING 208
SWIDTH 1000 0
DWIDTH 17 0
BBX 23 20 -3 -4
BITMAP
000000
000000
07ff80
0fff00
03c3c0
03c3c0
0781e0
0781e0
1ff9e0
3ff3c0
0f03c0
0f03c0
1e1e00
1e1e00
7ff800
fff000
000000
000000
000000
000000
ENDCHAR
STARTCHAR U+00CF
ENCODING 207
SWIDTH 1000 0
DWIDTH 17 0
BBX 23 20 -3 -4
BITMAP
01e1e0
01e1e0
000000
000000
03ffc0
03ffc0
007800
007800
007800
00f000
00f000
00f000
01e000
01e000
1ffe00
3ffc00
000000
000000
000000
000000
ENDCHAR
STARTCHAR U+00CE
ENCODING 206
SWIDTH 1000 0
DWIDTH 17 0
BBX 23 20 -3 -4
BITMAP
007f80
007f80
01e1e0
03c3c0
03ffc0
03ffc0
007800
007800
007800
00f000
00f000
00f000
01e000
01e000
1ffe00
3ffc00
000000
000000
000000
000000
ENDCHAR
STARTCHAR U+00CD
ENCODING 205
SWIDTH 1000 0
DWIDTH 17 0
BBX 23 20 -3 -4
BITMAP
001f80
001f80
01f800
03f000
03ffc0
03ffc0
007800
007800
007800
00f000
00f000
00f000
01e000
01e000
1ffe00
3ffc00
000000
000000
000000
000000
ENDCHAR
STARTCHAR U+00CC
ENCODING 204
SWIDTH 1000 0
DWIDTH 17 0
BBX 23 20 -3 -4
BITMAP
007e00
007e00
0007e0
000fc0
03ffc0
03ffc0
007800
007800
007800
00f000
00f000
00f000
01e000
01e000
1ffe00
3ffc00
000000
000000
000000
000000
ENDCHAR
STARTCHAR U+00CB
ENCODING 203
SWIDTH 1000 0
DWIDTH 17 0
BBX 23 20 -3 -4
BITMAP
01e1e0
01e1e0
000000
000000
0ffff0
0ffff0
1e0000
1e0000
1ffe00
3ffc00
3c0000
3c0000
780000
780000
7fff80
ffff00
000000
000000
000000
000000
ENDCHAR
STARTCHAR U+00CA
ENCODING 202
SWIDTH 1000 0
DWIDTH 17 0
BBX 23 20 -3 -4
BITMAP
007f80
007f80
01e1e0
03c3c0
0ffff0
0ffff0
1e0000
1e0000
1ff800
3ff000
3c0000
3c0000
780000
780000
7fff80
ffff00
000000
000000
000000
000000
ENDCHAR
STARTCHAR U+00C9
ENCODING 201
SWIDTH 1000 0
DWIDTH 17 0
BBX 23 20 -3 -4
BITMAP
0007e0
0007e0
007e00
00fc00
0ffff0
0ffff0
1e0000
1e0000
1ffe00
3ffc00
3c0000
3c0000
780000
780000
7fff80
ffff00
000000
000000
000000
000000
ENDCHAR
STARTCHAR U+00C8
ENCODING 200
SWIDTH 1000 0
DWIDTH 17 0
BBX 23 20 -3 -4
BITMAP
01f800
01f800
001f80
003f00
0ffff0
0ffff0
1e0000
1e0000
1ffe00
3ffc00
3c0000
3c0000
780000
780000
7fff80
ffff00
000000
000000
000000
000000
ENDCHAR
STARTCHAR U+00C7
ENCODING 199
SWIDTH 1000 0
DWIDTH 17 0
BBX 23 20 -3 -4
BITMAP
000000
000000
007fe0
00ffc0
03c0f0
03c0f0
1e0000
1e0000
1e0000
3c0000
3c0000
3c0000
1e0780
1e0780
07fe00
0ffc00
00f000
00f000
1fe000
1fe000
ENDCHAR
STARTCHAR U+00C6
ENCODING 198
SWIDTH 1000 0
DWIDTH 17 0
BBX 23 20 -3 -4
BITMAP
000000
000000
007ff8
00fff0
03dc00
03dc00
1e7800
1e7800
1e7f80
3cff00
3ff000
3ff000
79e000
79e000
79ff80
f3ff00
000000
000000
000000
000000
ENDCHAR
STARTCHAR U+00C5
ENCODING 197
SWIDTH 1000 0
DWIDTH 17 0
BBX 23 20 -3 -4
BITMAP
007f80
007f80
01e1e0
03c3c0
00ff00
00ff00
01fe00
01fe00
078780
0f0f00
3fffc0
3fffc0
780780
780780
780780
f00f00
000000
000000
000000
000000
ENDCHAR
STARTCHAR U+00C4
ENCODING 196
SWIDTH 1000 0
DWIDTH 17 0
BBX 23 20 -3 -4
BITMAP
01e1e0
01e1e0
000000
000000
003c00
003c00
01ee00
01ee00
078780
0f0f00
3fffc0
3fffc0
780780
780780
780780
f00f00
000000
000000
000000
000000
ENDCHAR
STARTCHAR U+00C3
ENCODING 195
SWIDTH 1000 0
DWIDTH 17 0
BBX 23 20 -3 -4
BITMAP
007e78
007e78
01e7e0
03cfc0
003c00
003c00
01ee00
01ee00
078780
0f0f00
3fffc0
3fffc0
780780
780780
780780
f00f00
000000
000000
000000
000000
ENDCHAR
STARTCHAR U+00C2
ENCODING 194
SWIDTH 1000 0
DWIDTH 17 0
BBX 23 20 -3 -4
BITMAP
007f80
007f80
01e1e0
03c3c0
003c00
003c00
01ee00
01ee00
078780
0f0f00
3fffc0
3fffc0
780780
780780
780780
f00f00
000000
000000
000000
000000
ENDCHAR
STARTCHAR U+00C1
ENCODING 193
SWIDTH 1000 0
DWIDTH 17 0
BBX 23 20 -3 -4
BITMAP
001f80
001f80
01f800
03f000
003c00
003c00
01ee00
01ee00
078780
0f0f00
3fffc0
3fffc0
780780
780780
780780
f00f00
000000
000000
000000
000000
ENDCHAR
STARTCHAR U+00C0
ENCODING 192
SWIDTH 1000 0
DWIDTH 17 0
BBX 23 20 -3 -4
BITMAP
007e00
007e00
0007e0
000fc0
003c00
003c00
01ee00
01ee00
078780
0f0f00
3fffc0
3fffc0
780780
780780
780780
f00f00
000000
000000
000000
000000
ENDCHAR
STARTCHAR U+00BF
ENCODING 191
SWIDTH 1000 0
DWIDTH 17 0
BBX 23 20 -3 -4
BITMAP
000000
000000
001e00
003c00
000000
000000
007800
007800
007800
00f000
0fc000
0fc000
780780
780780
1ffe00
3ffc00
000000
000000
000000
000000
ENDCHAR
STARTCHAR U+00BE
ENCODING 190
SWIDTH 1000 0
DWIDTH 17 0
BBX 23 20 -3 -4
BITMAP
07fe00
07fe00
001e00
003c00
03f3c0
03f3c0
007e00
007e00
1ff800
3ff000
03cf00
03cf00
1e7e00
1e7e00
79ee00
f3dc00
0fff00
0fff00
007800
007800
ENDCHAR
STARTCHAR U+00BD
ENCODING 189
SWIDTH 1000 0
DWIDTH 17 0
BBX 23 20 -3 -4
BITMAP
000000
000000
01e000
03c000
0fc3c0
0fc3c0
079e00
079e00
07b800
0f7000
03df00
03df00
1ee780
1ee780
781e00
f03c00
00f000
00f000
07fe00
07fe00
ENDCHAR
STARTCHAR U+00BC
ENCODING 188
SWIDTH 1000 0
DWIDTH 17 0
BBX 23 20 -3 -4
BITMAP
000000
000000
01e000
03c000
0fc3c0
0fc3c0
079e00
079e00
07b800
0f7000
03cf00
03cf00
1e7e00
1e7e00
79ee00
f3dc00
0fff00
0fff00
007800
007800
ENDCHAR
STARTCHAR U+00BB
ENCODING 187
SWIDTH 1000 0
DWIDTH 17 0
BBX 23 20 -3 -4
BITMAP
000000
000000
079e00
0f3c00
03cf00
03cf00
01e780
01e780
0079e0
00f3c0
03cf00
03cf00
1e7800
1e7800
79e000
f3c000
000000
000000
000000
000000
ENDCHAR
STARTCHAR U+00BA
ENCODING 186
SWIDTH 1000 0
DWIDTH 17 0
BBX 23 20 -3 -4
BITMAP
000000
000000
01ffe0
03ffc0
0f00f0
0f00f0
1e01e0
1e01e0
1e01e0
3c03c0
0fff00
0fff00
000000
000000
7fff80
ffff00
000000
000000
000000
000000
ENDCHAR
STARTCHAR U+00B9
ENCODING 185
SWIDTH 1000 0
DWIDTH 17 0
BBX 23 20 -3 -4
BITMAP
001e00
001e00
007e00
00fc00
003c00
003c00
007800
007800
01fe00
03fc00
000000
000000
000000
000000
000000
000000
000000
000000
000000
000000
ENDCHAR
STARTCHAR U+00B8
ENCODING 184
SWIDTH 1000 0
DWIDTH 17 0
BBX 23 20 -3 -4
BITMAP
000000
000000
000000
000000
000000
000000
000000
000000
000000
000000
000000
000000
000000
000000
000000
000000
00f000
00f000
1fe000
1fe000
ENDCHAR
STARTCHAR U+2022
ENCODING 8226
SWIDTH 1000 0
DWIDTH 17 0
BBX 23 20 -3 -4
BITMAP
000000
000000
000000
000000
000000
000000
01f800
01f800
01f800
03f000
000000
000000
000000
000000
000000
000000
000000
000000
000000
000000
ENDCHAR
STARTCHAR U+00B6
ENCODING 182
SWIDTH 1000 0
DWIDTH 17 0
BBX 23 20 -3 -4
BITMAP
000000
000000
01fff8
03fff0
0fcf70
0fcf70
1f9ee0
1f9ee0
07ffe0
0fffc0
003dc0
003dc0
007b80
007b80
007b80
00f700
000000
000000
000000
000000
ENDCHAR
STARTCHAR U+00B5
ENCODING 181
SWIDTH 1000 0
DWIDTH 17 0
BBX 23 20 -3 -4
BITMAP
000000
000000
000000
000000
000000
000000
0781e0
0781e0
0781e0
0f03c0
0f03c0
0f03c0
1f9f80
1f9f80
1efb80
3df700
3c0000
3c0000
e00000
e00000
ENDCHAR
STARTCHAR U+00B4
ENCODING 180
SWIDTH 1000 0
DWIDTH 17 0
BBX 23 20 -3 -4
BITMAP
000000
000000
0007e0
000fc0
000f00
000f00
007800
007800
000000
000000
000000
000000
000000
000000
000000
000000
000000
000000
000000
000000
ENDCHAR
STARTCHAR U+00B3
ENCODING 179
SWIDTH 1000 0
DWIDTH 17 0
BBX 23 20 -3 -4
BITMAP
01ffe0
01ffe0
0001e0
0003c0
003f00
003f00
000780
000780
07fe00
0ffc00
000000
000000
000000
000000
000000
000000
000000
000000
000000
000000
ENDCHAR
STARTCHAR U+00B2
ENCODING 178
SWIDTH 1000 0
DWIDTH 17 0
BBX 23 20 -3 -4
BITMAP
007f80
007f80
01e1e0
03c3c0
003f00
003f00
01e000
01e000
07ff80
0fff00
000000
000000
000000
000000
000000
000000
000000
000000
000000
000000
ENDCHAR
STARTCHAR U+00AF
ENCODING 175
SWIDTH 1000 0
DWIDTH 17 0
BBX 23 20 -3 -4
BITMAP
01ffe0
01ffe0
000000
000000
000000
000000
000000
000000
000000
000000
000000
000000
000000
000000
000000
000000
000000
000000
000000
000000
ENDCHAR
STARTCHAR U+00AE
ENCODING 174
SWIDTH 1000 0
DWIDTH 17 0
BBX 23 20 -3 -4
BITMAP
000000
000000
007f80
00ff00
03c3c0
03c3c0
1efee0
1efee0
1ee7e0
3dcfc0
3dfdc0
3dfdc0
7be780
7be780
1fbe00
3f7c00
0ff000
0ff000
000000
000000
ENDCHAR
STARTCHAR U+00D7
ENCODING 215
SWIDTH 1000 0
DWIDTH 17 0
BBX 23 20 -3 -4
BITMAP
000000
000000
000000
000000
03c3c0
03c3c0
01ee00
01ee00
007800
00f000
03dc00
03dc00
1e1e00
1e1e00
000000
000000
000000
000000
000000
000000
ENDCHAR
STARTCHAR U+00AC
ENCODING 172
SWIDTH 1000 0
DWIDTH 17 0
BBX 23 20 -3 -4
BITMAP
000000
000000
000000
000000
000000
000000
000000
000000
000000
000000
3fffc0
3fffc0
000780
000780
000780
000f00
000000
000000
000000
000000
ENDCHAR
STARTCHAR U+00AB
ENCODING 171
SWIDTH 1000 0
DWIDTH 17 0
BBX 23 20 -3 -4
BITMAP
000000
000000
001e78
003cf0
00f3c0
00f3c0
079e00
079e00
1e7800
3cf000
0f3c00
0f3c00
079e00
079e00
01e780
03cf00
000000
000000
000000
000000
ENDCHAR
STARTCHAR U+00AA
ENCODING 170
SWIDTH 1000 0
DWIDTH 17 0
BBX 23 20 -3 -4
BITMAP
000000
000000
01ffe0
03ffc0
0000f0
0000f0
07ffe0
07ffe0
1e07e0
3c0fc0
0ffdc0
0ffdc0
000000
000000
7fff80
ffff00
000000
000000
000000
000000
ENDCHAR
STARTCHAR U+00A9
ENCODING 169
SWIDTH 1000 0
DWIDTH 17 0
BBX 23 20 -3 -4
BITMAP
000000
000000
007f80
00ff00
03c3c0
03c3c0
1e7ee0
1e7ee0
1ee1e0
3dc3c0
3dc3c0
3dc3c0
79fb80
79fb80
1e1e00
3c3c00
0ff000
0ff000
000000
000000
ENDCHAR
STARTCHAR U+00A4
ENCODING 164
SWIDTH 1000 0
DWIDTH 17 0
BBX 23 20 -3 -4
BITMAP
000000
000000
000000
000000
0f00f0
0f00f0
07ff80
07ff80
078780
0f0f00
0fff00
0fff00
780780
780780
000000
000000
000000
000000
000000
000000
ENDCHAR
STARTCHAR U+00A7
ENCODING 167
SWIDTH 1000 0
DWIDTH 17 0
BBX 23 20 -3 -4
BITMAP
000000
000000
007fe0
00ffc0
03c000
03c000
01fe00
01fe00
078780
0f0f00
03fc00
03fc00
001e00
001e00
1ff800
3ff000
000000
000000
000000
000000
ENDCHAR
STARTCHAR U+00A6
ENCODING 166
SWIDTH 1000 0
DWIDTH 17 0
BBX 23 20 -3 -4
BITMAP
000000
000000
001e00
003c00
003c00
003c00
007800
007800
000000
000000
00f000
00f000
01e000
01e000
01e000
03c000
000000
000000
000000
000000
ENDCHAR
STARTCHAR U+00A5
ENCODING 165
SWIDTH 1000 0
DWIDTH 17 0
BBX 23 20 -3 -4
BITMAP
000000
000000
078078
0f00f0
03c3c0
03c3c0
01ee00
01ee00
007800
00f000
3fffc0
3fffc0
01e000
01e000
01e000
03c000
000000
000000
000000
000000
ENDCHAR
STARTCHAR U+00A8
ENCODING 168
SWIDTH 1000 0
DWIDTH 17 0
BBX 23 20 -3 -4
BITMAP
01e1e0
01e1e0
000000
000000
000000
000000
000000
000000
000000
000000
000000
000000
000000
000000
000000
000000
000000
000000
000000
000000
ENDCHAR
STARTCHAR U+00A2
ENCODING 162
SWIDTH 1000 0
DWIDTH 17 0
BBX 23 20 -3 -4
BITMAP
000000
000000
000000
000000
003c00
003c00
07ff80
07ff80
1e79e0
3cf3c0
3cf000
3cf000
79e780
79e780
1ffe00
3ffc00
03c000
03c000
000000
000000
ENDCHAR
STARTCHAR U+00A1
ENCODING 161
SWIDTH 1000 0
DWIDTH 17 0
BBX 23 20 -3 -4
BITMAP
000000
000000
001e00
003c00
000000
000000
007800
007800
007800
00f000
00f000
00f000
01e000
01e000
01e000
03c000
000000
000000
000000
000000
ENDCHAR
STARTCHAR U+201F
ENCODING 8223
SWIDTH 1000 0
DWIDTH 17 0
BBX 23 20 -3 -4
BITMAP
000000
000000
01fbe0
03f7c0
03cf00
03cf00
01e780
01e780
000000
000000
000000
000000
000000
000000
000000
000000
000000
000000
000000
000000
ENDCHAR
STARTCHAR U+201E
ENCODING 8222
SWIDTH 1000 0
DWIDTH 17 0
BBX 23 20 -3 -4
BITMAP
000000
000000
000000
000000
000000
000000
000000
000000
000000
000000
000000
000000
000000
000000
1e7800
3cf000
3cf000
3cf000
000000
000000
ENDCHAR
STARTCHAR U+201D
ENCODING 8221
SWIDTH 1000 0
DWIDTH 17 0
BBX 23 20 -3 -4
BITMAP
000000
000000
01f9f8
03f3f0
00f0f0
00f0f0
078780
078780
000000
000000
000000
000000
000000
000000
000000
000000
000000
000000
000000
000000
ENDCHAR
STARTCHAR U+201C
ENCODING 8220
SWIDTH 1000 0
DWIDTH 17 0
BBX 23 20 -3 -4
BITMAP
000000
000000
007878
00f0f0
03c3c0
03c3c0
07e7e0
07e7e0
000000
000000
000000
000000
000000
000000
000000
000000
000000
000000
000000
000000
ENDCHAR
STARTCHAR U+201B
ENCODING 8219
SWIDTH 1000 0
DWIDTH 17 0
BBX 23 20 -3 -4
BITMAP
000000
000000
001e00
003c00
003c00
003c00
007800
007800
000000
000000
000000
000000
000000
000000
000000
000000
000000
000000
000000
000000
ENDCHAR
STARTCHAR U+201A
ENCODING 8218
SWIDTH 1000 0
DWIDTH 17 0
BBX 23 20 -3 -4
BITMAP
000000
000000
000000
000000
000000
000000
000000
000000
000000
000000
00f000
00f000
01e000
01e000
01e000
03c000
000000
000000
000000
000000
ENDCHAR
STARTCHAR U+2019
ENCODING 8217
SWIDTH 1000 0
DWIDTH 17 0
BBX 23 20 -3 -4
BITMAP
000000
000000
01f800
03f000
00f000
00f000
078000
078000
000000
000000
000000
000000
000000
000000
000000
000000
000000
000000
000000
000000
ENDCHAR
STARTCHAR U+2018
ENCODING 8216
SWIDTH 1000 0
DWIDTH 17 0
BBX 23 20 -3 -4
BITMAP
000000
000000
000078
0000f0
0003c0
0003c0
0007e0
0007e0
000000
000000
000000
000000
000000
000000
000000
000000
000000
000000
000000
000000
ENDCHAR
STARTCHAR U+2017
ENCODING 8215
SWIDTH 1000 0
DWIDTH 17 0
BBX 23 20 -3 -4
BITMAP
000000
000000
000000
000000
000000
000000
000000
000000
000000
000000
000000
000000
000000
000000
7fff80
ffff00
000000
000000
fffe00
fffe00
ENDCHAR
STARTCHAR U+2016
ENCODING 8214
SWIDTH 1000 0
DWIDTH 17 0
BBX 23 20 -3 -4
BITMAP
000000
000000
001ee0
003dc0
003dc0
003dc0
007b80
007b80
007b80
00f700
00f700
00f700
01ee00
01ee00
01ee00
03dc00
000000
000000
000000
000000
ENDCHAR
STARTCHAR U+2015
ENCODING 8213
SWIDTH 1000 0
DWIDTH 17 0
BBX 23 20 -3 -4
BITMAP
000000
000000
000000
000000
000000
000000
000000
000000
1ffff8
3ffff0
000000
000000
000000
000000
000000
000000
000000
000000
000000
000000
ENDCHAR
STARTCHAR U+2014
ENCODING 8212
SWIDTH 1000 0
DWIDTH 17 0
BBX 23 20 -3 -4
BITMAP
000000
000000
000000
000000
000000
000000
000000
000000
1fffe0
3fffc0
000000
000000
000000
000000
000000
000000
000000
000000
000000
000000
ENDCHAR
STARTCHAR U+2013
ENCODING 8211
SWIDTH 1000 0
DWIDTH 17 0
BBX 23 20 -3 -4
BITMAP
000000
000000
000000
000000
000000
000000
000000
000000
01ff80
03ff00
000000
000000
000000
000000
000000
000000
000000
000000
000000
000000
ENDCHAR
STARTCHAR U+2012
ENCODING 8210
SWIDTH 1000 0
DWIDTH 17 0
BBX 23 20 -3 -4
BITMAP
000000
000000
000000
000000
000000
000000
000000
000000
07ff80
0fff00
000000
000000
000000
000000
000000
000000
000000
000000
000000
000000
ENDCHAR
STARTCHAR U+2011
ENCODING 8209
SWIDTH 1000 0
DWIDTH 17 0
BBX 23 20 -3 -4
BITMAP
000000
000000
000000
000000
000000
000000
000000
000000
01fe00
03fc00
000000
000000
000000
000000
000000
000000
000000
000000
000000
000000
ENDCHAR
STARTCHAR U+2010
ENCODING 8208
SWIDTH 1000 0
DWIDTH 17 0
BBX 23 20 -3 -4
BITMAP
000000
000000
000000
000000
000000
000000
000000
000000
01fe00
03fc00
000000
000000
000000
000000
000000
000000
000000
000000
000000
000000
ENDCHAR
STARTCHAR U+007F
ENCODING 127
SWIDTH 1000 0
DWIDTH 17 0
BBX 23 20 -3 -4
BITMAP
000000
000000
07f800
0ff000
0f3c00
0f3c00
1e7800
1e7800
1e7800
3cf000
3ffc00
3ffc00
078000
078000
078000
0f0000
0f0000
0f0000
1e0000
1e0000
ENDCHAR
STARTCHAR U+007E
ENCODING 126
SWIDTH 1000 0
DWIDTH 17 0
BBX 23 20 -3 -4
BITMAP
000000
000000
01f878
03f0f0
0f3cf0
0f3cf0
1e1f80
1e1f80
000000
000000
000000
000000
000000
000000
000000
000000
000000
000000
000000
000000
ENDCHAR
STARTCHAR U+007D
ENCODING 125
SWIDTH 1000 0
DWIDTH 17 0
BBX 23 20 -3 -4
BITMAP
000000
000000
07f800
0ff000
003c00
003c00
01e000
01e000
007e00
00fc00
03c000
03c000
01e000
01e000
7f8000
ff0000
000000
000000
000000
000000
ENDCHAR
STARTCHAR U+007C
ENCODING 124
SWIDTH 1000 0
DWIDTH 17 0
BBX 23 20 -3 -4
BITMAP
000000
000000
001e00
003c00
003c00
003c00
007800
007800
007800
00f000
00f000
00f000
01e000
01e000
01e000
03c000
000000
000000
000000
000000
ENDCHAR
STARTCHAR U+007B
ENCODING 123
SWIDTH 1000 0
DWIDTH 17 0
BBX 23 20 -3 -4
BITMAP
000000
000000
0007f8
000ff0
003c00
003c00
001e00
001e00
01f800
03f000
003c00
003c00
01e000
01e000
007f80
00ff00
000000
000000
000000
000000
ENDCHAR
STARTCHAR U+007A
ENCODING 122
SWIDTH 1000 0
DWIDTH 17 0
BBX 23 20 -3 -4
BITMAP
000000
000000
000000
000000
000000
000000
1fffe0
1fffe0
000780
000f00
00fc00
00fc00
078000
078000
7fff80
ffff00
000000
000000
000000
000000
ENDCHAR
STARTCHAR U+0079
ENCODING 121
SWIDTH 1000 0
DWIDTH 17 0
BBX 23 20 -3 -4
BITMAP
000000
000000
000000
000000
000000
000000
1e0780
1e0780
1e0780
3c0f00
3c3f00
3c3f00
1fee00
1fee00
001e00
003c00
f03c00
f03c00
7fe000
7fe000
ENDCHAR
STARTCHAR U+0078
ENCODING 120
SWIDTH 1000 0
DWIDTH 17 0
BBX 23 20 -3 -4
BITMAP
000000
000000
000000
000000
000000
000000
1e0780
1e0780
079e00
0f3c00
03f000
03f000
1e7800
1e7800
781e00
f03c00
000000
000000
000000
000000
ENDCHAR
STARTCHAR U+0077
ENCODING 119
SWIDTH 1000 0
DWIDTH 17 0
BBX 23 20 -3 -4
BITMAP
000000
000000
000000
000000
000000
000000
1e01e0
1e01e0
1e01e0
3c03c0
3cf3c0
3cf3c0
7bbb80
7bbb80
1e1e00
3c3c00
000000
000000
000000
000000
ENDCHAR
STARTCHAR U+0076
ENCODING 118
SWIDTH 1000 0
DWIDTH 17 0
BBX 23 20 -3 -4
BITMAP
000000
000000
000000
000000
000000
000000
1e01e0
1e01e0
1e01e0
3c03c0
0f0f00
0f0f00
07b800
07b800
01e000
03c000
000000
000000
000000
000000
ENDCHAR
STARTCHAR U+0075
ENCODING 117
SWIDTH 1000 0
DWIDTH 17 0
BBX 23 20 -3 -4
BITMAP
000000
000000
000000
000000
000000
000000
1e0780
1e0780
1e0780
3c0f00
3c0f00
3c0f00
781e00
781e00
1ffb80
3ff700
000000
000000
000000
000000
ENDCHAR
STARTCHAR U+0074
ENCODING 116
SWIDTH 1000 0
DWIDTH 17 0
BBX 23 20 -3 -4
BITMAP
000000
000000
007800
00f000
00f000
00f000
1ffe00
1ffe00
01e000
03c000
03c000
03c000
079e00
079e00
01f800
03f000
000000
000000
000000
000000
ENDCHAR
STARTCHAR U+0073
ENCODING 115
SWIDTH 1000 0
DWIDTH 17 0
BBX 23 20 -3 -4
BITMAP
000000
000000
000000
000000
000000
000000
07ff80
07ff80
1e0000
3c0000
0fff00
0fff00
000780
000780
7ffe00
fffc00
000000
000000
000000
000000
ENDCHAR
STARTCHAR U+0072
ENCODING 114
SWIDTH 1000 0
DWIDTH 17 0
BBX 23 20 -3 -4
BITMAP
000000
000000
000000
000000
000000
000000
1e7f80
1e7f80
07e1e0
0fc3c0
0f0000
0f0000
1e0000
1e0000
1e0000
3c0000
000000
000000
000000
000000
ENDCHAR
STARTCHAR U+0071
ENCODING 113
SWIDTH 1000 0
DWIDTH 17 0
BBX 23 20 -3 -4
BITMAP
000000
000000
000000
000000
000000
000000
07fee0
07fee0
1e07e0
3c0fc0
3c0fc0
3c0fc0
1ffb80
1ffb80
000780
000f00
000f00
000f00
001e00
001e00
ENDCHAR
STARTCHAR U+0070
ENCODING 112
SWIDTH 1000 0
DWIDTH 17 0
BBX 23 20 -3 -4
BITMAP
000000
000000
000000
000000
000000
000000
1eff80
1eff80
1f81e0
3f03c0
3f03c0
3f03c0
7bfe00
7bfe00
780000
f00000
f00000
f00000
e00000
e00000
ENDCHAR
STARTCHAR U+006f
ENCODING 111
SWIDTH 1000 0
DWIDTH 17 0
BBX 23 20 -3 -4
BITMAP
000000
000000
000000
000000
000000
000000
07ff80
07ff80
1e01e0
3c03c0
3c03c0
3c03c0
780780
780780
1ffe00
3ffc00
000000
000000
000000
000000
ENDCHAR
STARTCHAR U+006e
ENCODING 110
SWIDTH 1000 0
DWIDTH 17 0
BBX 23 20 -3 -4
BITMAP
000000
000000
000000
000000
000000
000000
1eff80
1eff80
1f81e0
3f03c0
3c03c0
3c03c0
780780
780780
780780
f00f00
000000
000000
000000
000000
ENDCHAR
STARTCHAR U+006d
ENCODING 109
SWIDTH 1000 0
DWIDTH 17 0
BBX 23 20 -3 -4
BITMAP
000000
000000
000000
000000
000000
000000
1f8780
1f8780
1eeee0
3dddc0
3cf3c0
3cf3c0
79e780
79e780
780780
f00f00
000000
000000
000000
000000
ENDCHAR
STARTCHAR U+006c
ENCODING 108
SWIDTH 1000 0
DWIDTH 17 0
BBX 23 20 -3 -4
BITMAP
000000
000000
007e00
00fc00
003c00
003c00
007800
007800
007800
00f000
00f000
00f000
01e000
01e000
07f800
0ff000
000000
000000
000000
000000
ENDCHAR
STARTCHAR U+006b
ENCODING 107
SWIDTH 1000 0
DWIDTH 17 0
BBX 23 20 -3 -4
BITMAP
000000
000000
078000
0f0000
0f0000
0f0000
1e1e00
1e1e00
1e7800
3cf000
3fc000
3fc000
787800
787800
780780
f00f00
000000
000000
000000
000000
ENDCHAR
STARTCHAR U+006a
ENCODING 106
SWIDTH 1000 0
DWIDTH 17 0
BBX 23 20 -3 -4
BITMAP
000000
000000
0001e0
0003c0
000000
000000
000780
000780
000780
000f00
000f00
000f00
001e00
001e00
781e00
f03c00
f03c00
f03c00
7fe000
7fe000
ENDCHAR
STARTCHAR U+0069
ENCODING 105
SWIDTH 1000 0
DWIDTH 17 0
BBX 23 20 -3 -4
BITMAP
000000
000000
001e00
003c00
000000
000000
01f800
01f800
007800
00f000
00f000
00f000
01e000
01e000
1ffe00
3ffc00
000000
000000
000000
000000
ENDCHAR
STARTCHAR U+0068
ENCODING 104
SWIDTH 1000 0
DWIDTH 17 0
BBX 23 20 -3 -4
BITMAP
000000
000000
078000
0f0000
0f0000
0f0000
1eff80
1eff80
1f81e0
3f03c0
3c03c0
3c03c0
780780
780780
780780
f00f00
000000
000000
000000
000000
ENDCHAR
STARTCHAR U+0067
ENCODING 103
SWIDTH 1000 0
DWIDTH 17 0
BBX 23 20 -3 -4
BITMAP
000000
000000
000000
000000
000000
000000
07fee0
07fee0
1e0780
3c0f00
0ffc00
0ffc00
780000
780000
1ffe00
3ffc00
f00f00
f00f00
7ff800
7ff800
ENDCHAR
STARTCHAR U+0066
ENCODING 102
SWIDTH 1000 0
DWIDTH 17 0
BBX 23 20 -3 -4
BITMAP
000000
000000
001fe0
003fc0
00f0f0
00f0f0
01e000
01e000
1ffe00
3ffc00
03c000
03c000
078000
078000
078000
0f0000
000000
000000
000000
000000
ENDCHAR
STARTCHAR U+0065
ENCODING 101
SWIDTH 1000 0
DWIDTH 17 0
BBX 23 20 -3 -4
BITMAP
000000
000000
000000
000000
000000
000000
07ff80
07ff80
1e01e0
3c03c0
3fffc0
3fffc0
780000
780000
1ffe00
3ffc00
000000
000000
000000
000000
ENDCHAR
STARTCHAR U+0064
ENCODING 100
SWIDTH 1000 0
DWIDTH 17 0
BBX 23 20 -3 -4
BITMAP
000000
000000
000078
0000f0
0000f0
0000f0
07fee0
07fee0
1e07e0
3c0fc0
3c03c0
3c03c0
781f80
781f80
1ffb80
3ff700
000000
000000
000000
000000
ENDCHAR
STARTCHAR U+0063
ENCODING 99
SWIDTH 1000 0
DWIDTH 17 0
BBX 23 20 -3 -4
BITMAP
000000
000000
000000
000000
000000
000000
07ff80
07ff80
1e01e0
3c03c0
3c0000
3c0000
780000
780000
1fff80
3fff00
000000
000000
000000
000000
ENDCHAR
STARTCHAR U+0062
ENCODING 98
SWIDTH 1000 0
DWIDTH 17 0
BBX 23 20 -3 -4
BITMAP
000000
000000
078000
0f0000
0f0000
0f0000
1eff80
1eff80
1f81e0
3f03c0
3c03c0
3c03c0
7e0780
7e0780
7bfe00
f7fc00
000000
000000
000000
000000
ENDCHAR
STARTCHAR U+0061
ENCODING 97
SWIDTH 1000 0
DWIDTH 17 0
BBX 23 20 -3 -4
BITMAP
000000
000000
000000
000000
000000
000000
07ff80
07ff80
0001e0
0003c0
0fffc0
0fffc0
781f80
781f80
1ffb80
3ff700
000000
000000
000000
000000
ENDCHAR
STARTCHAR U+0060
ENCODING 96
SWIDTH 1000 0
DWIDTH 17 0
BBX 23 20 -3 -4
BITMAP
000000
000000
007e00
00fc00
003c00
003c00
001e00
001e00
000000
000000
000000
000000
000000
000000
000000
000000
000000
000000
000000
000000
ENDCHAR
STARTCHAR U+005F
ENCODING 95
SWIDTH 1000 0
DWIDTH 17 0
BBX 23 20 -3 -4
BITMAP
000000
000000
000000
000000
000000
000000
000000
000000
000000
000000
000000
000000
000000
000000
7fff80
ffff00
000000
000000
000000
000000
ENDCHAR
STARTCHAR U+005E
ENCODING 94
SWIDTH 1000 0
DWIDTH 17 0
BBX 23 20 -3 -4
BITMAP
000000
000000
001e00
003c00
00f700
00f700
078780
078780
1e01e0
3c03c0
000000
000000
000000
000000
000000
000000
000000
000000
000000
000000
ENDCHAR
STARTCHAR U+005D
ENCODING 93
SWIDTH 1000 0
DWIDTH 17 0
BBX 23 20 -3 -4
BITMAP
000000
000000
01ff80
03ff00
000f00
000f00
001e00
001e00
001e00
003c00
003c00
003c00
007800
007800
1ff800
3ff000
000000
000000
000000
000000
ENDCHAR
STARTCHAR U+005C
ENCODING 92
SWIDTH 1000 0
DWIDTH 17 0
BBX 23 20 -3 -4
BITMAP
000000
000000
078000
0f0000
03c000
03c000
01e000
01e000
007800
00f000
003c00
003c00
001e00
001e00
000780
000f00
000000
000000
000000
000000
ENDCHAR
STARTCHAR U+005B
ENCODING 91
SWIDTH 1000 0
DWIDTH 17 0
BBX 23 20 -3 -4
BITMAP
000000
000000
007fe0
00ffc0
00f000
00f000
01e000
01e000
01e000
03c000
03c000
03c000
078000
078000
07fe00
0ffc00
000000
000000
000000
000000
ENDCHAR
STARTCHAR U+005A
ENCODING 90
SWIDTH 1000 0
DWIDTH 17 0
BBX 23 20 -3 -4
BITMAP
000000
000000
07fff8
0ffff0
0003c0
0003c0
001e00
001e00
007800
00f000
03c000
03c000
1e0000
1e0000
7fff80
ffff00
000000
000000
000000
000000
ENDCHAR
STARTCHAR U+0059
ENCODING 89
SWIDTH 1000 0
DWIDTH 17 0
BBX 23 20 -3 -4
BITMAP
000000
000000
078078
0f00f0
03c3c0
03c3c0
01ee00
01ee00
007800
00f000
00f000
00f000
01e000
01e000
01e000
03c000
000000
000000
000000
000000
ENDCHAR
STARTCHAR U+0058
ENCODING 88
SWIDTH 1000 0
DWIDTH 17 0
BBX 23 20 -3 -4
BITMAP
000000
000000
078078
0f00f0
03c3c0
03c3c0
01ee00
01ee00
007800
00f000
03dc00
03dc00
1e1e00
1e1e00
780780
f00f00
000000
000000
000000
000000
ENDCHAR
STARTCHAR U+0057
ENCODING 87
SWIDTH 1000 0
DWIDTH 17 0
BBX 23 20 -3 -4
BITMAP
000000
000000
078078
0f00f0
0f00f0
0f00f0
1e01e0
1e01e0
1e79e0
3cf3c0
3cf3c0
3cf3c0
7bbb80
7bbb80
1e1e00
3c3c00
000000
000000
000000
000000
ENDCHAR
STARTCHAR U+0056
ENCODING 86
SWIDTH 1000 0
DWIDTH 17 0
BBX 23 20 -3 -4
BITMAP
000000
000000
078078
0f00f0
0f00f0
0f00f0
078780
078780
078780
0f0f00
03dc00
03dc00
07b800
07b800
01e000
03c000
000000
000000
000000
000000
ENDCHAR
STARTCHAR U+0055
ENCODING 85
SWIDTH 1000 0
DWIDTH 17 0
BBX 23 20 -3 -4
BITMAP
000000
000000
078078
0f00f0
0f00f0
0f00f0
1e01e0
1e01e0
1e01e0
3c03c0
3c03c0
3c03c0
780780
780780
1ffe00
3ffc00
000000
000000
000000
000000
ENDCHAR
STARTCHAR U+0054
ENCODING 84
SWIDTH 1000 0
DWIDTH 17 0
BBX 23 20 -3 -4
BITMAP
000000
000000
07fff8
0ffff0
003c00
003c00
007800
007800
007800
00f000
00f000
00f000
01e000
01e000
01e000
03c000
000000
000000
000000
000000
ENDCHAR
STARTCHAR U+0053
ENCODING 83
SWIDTH 1000 0
DWIDTH 17 0
BBX 23 20 -3 -4
BITMAP
000000
000000
01ffe0
03ffc0
0f00f0
0f00f0
1e0000
1e0000
07ff80
0fff00
0003c0
0003c0
780780
780780
1ffe00
3ffc00
000000
000000
000000
000000
ENDCHAR
STARTCHAR U+0052
ENCODING 82
SWIDTH 1000 0
DWIDTH 17 0
BBX 23 20 -3 -4
BITMAP
000000
000000
07ffe0
0fffc0
0f00f0
0f00f0
1e01e0
1e01e0
1fff80
3fff00
3c3c00
3c3c00
781e00
781e00
780780
f00f00
000000
000000
000000
000000
ENDCHAR
STARTCHAR U+0051
ENCODING 81
SWIDTH 1000 0
DWIDTH 17 0
BBX 23 20 -3 -4
BITMAP
000000
000000
01ffe0
03ffc0
0f00f0
0f00f0
1e01e0
1e01e0
1e01e0
3c03c0
3c3dc0
3c3dc0
781e00
781e00
1ffb80
3ff700
000000
000000
000000
000000
ENDCHAR
STARTCHAR U+0050
ENCODING 80
SWIDTH 1000 0
DWIDTH 17 0
BBX 23 20 -3 -4
BITMAP
000000
000000
07ffe0
0fffc0
0f00f0
0f00f0
1e01e0
1e01e0
1fff80
3fff00
3c0000
3c0000
780000
780000
780000
f00000
000000
000000
000000
000000
ENDCHAR
STARTCHAR U+004F
ENCODING 79
SWIDTH 1000 0
DWIDTH 17 0
BBX 23 20 -3 -4
BITMAP
000000
000000
01ffe0
03ffc0
0f00f0
0f00f0
1e01e0
1e01e0
1e01e0
3c03c0
3c03c0
3c03c0
780780
780780
1ffe00
3ffc00
000000
000000
000000
000000
ENDCHAR
STARTCHAR U+004E
ENCODING 78
SWIDTH 1000 0
DWIDTH 17 0
BBX 23 20 -3 -4
BITMAP
000000
000000
078078
0f00f0
0fc0f0
0fc0f0
1ee1e0
1ee1e0
1e79e0
3cf3c0
3c3dc0
3c3dc0
781f80
781f80
780780
f00f00
000000
000000
000000
000000
ENDCHAR
STARTCHAR U+004D
ENCODING 77
SWIDTH 1000 0
DWIDTH 17 0
BBX 23 20 -3 -4
BITMAP
000000
000000
078078
0f00f0
0fc3f0
0fc3f0
1eeee0
1eeee0
1e79e0
3cf3c0
3c03c0
3c03c0
780780
780780
780780
f00f00
000000
000000
000000
000000
ENDCHAR
STARTCHAR U+004C
ENCODING 76
SWIDTH 1000 0
DWIDTH 17 0
BBX 23 20 -3 -4
BITMAP
000000
000000
078000
0f0000
0f0000
0f0000
1e0000
1e0000
1e0000
3c0000
3c0000
3c0000
780000
780000
7fff80
ffff00
000000
000000
000000
000000
ENDCHAR
STARTCHAR U+004B
ENCODING 75
SWIDTH 1000 0
DWIDTH 17 0
BBX 23 20 -3 -4
BITMAP
000000
000000
078078
0f00f0
0f0fc0
0f0fc0
1ef800
1ef800
1f8000
3f0000
3df000
3df000
787e00
787e00
780780
f00f00
000000
000000
000000
000000
ENDCHAR
STARTCHAR U+004A
ENCODING 74
SWIDTH 1000 0
DWIDTH 17 0
BBX 23 20 -3 -4
BITMAP
000000
000000
0007f8
000ff0
0003c0
0003c0
000780
000780
000780
000f00
000f00
000f00
781e00
781e00
1ff800
3ff000
000000
000000
000000
000000
ENDCHAR
STARTCHAR U+0049
ENCODING 73
SWIDTH 1000 0
DWIDTH 17 0
BBX 23 20 -3 -4
BITMAP
000000
000000
01ffe0
03ffc0
003c00
003c00
007800
007800
007800
00f000
00f000
00f000
01e000
01e000
1ffe00
3ffc00
000000
000000
000000
000000
ENDCHAR
STARTCHAR U+0048
ENCODING 72
SWIDTH 1000 0
DWIDTH 17 0
BBX 23 20 -3 -4
BITMAP
000000
000000
078078
0f00f0
0f00f0
0f00f0
1e01e0
1e01e0
1fffe0
3fffc0
3c03c0
3c03c0
780780
780780
780780
f00f00
000000
000000
000000
000000
ENDCHAR
STARTCHAR U+0047
ENCODING 71
SWIDTH 1000 0
DWIDTH 17 0
BBX 23 20 -3 -4
BITMAP
000000
000000
007fe0
00ffc0
03c0f0
03c0f0
1e0000
1e0000
1e0000
3c0000
3c3fc0
3c3fc0
1e0780
1e0780
07fe00
0ffc00
000000
000000
000000
000000
ENDCHAR
STARTCHAR U+0046
ENCODING 70
SWIDTH 1000 0
DWIDTH 17 0
BBX 23 20 -3 -4
BITMAP
000000
000000
07fff8
0ffff0
0f0000
0f0000
1e0000
1e0000
1ffe00
3ffc00
3c0000
3c0000
780000
780000
780000
f00000
000000
000000
000000
000000
ENDCHAR
STARTCHAR U+0045
ENCODING 69
SWIDTH 1000 0
DWIDTH 17 0
BBX 23 20 -3 -4
BITMAP
000000
000000
07fff8
0ffff0
0f0000
0f0000
1e0000
1e0000
1ffe00
3ffc00
3c0000
3c0000
780000
780000
7fff80
ffff00
000000
000000
000000
000000
ENDCHAR
STARTCHAR U+0044
ENCODING 68
SWIDTH 1000 0
DWIDTH 17 0
BBX 23 20 -3 -4
BITMAP
000000
000000
07ff80
0fff00
03c3c0
03c3c0
0781e0
0781e0
0781e0
0f03c0
0f03c0
0f03c0
1e1e00
1e1e00
7ff800
fff000
000000
000000
000000
000000
ENDCHAR
STARTCHAR U+0043
ENCODING 67
SWIDTH 1000 0
DWIDTH 17 0
BBX 23 20 -3 -4
BITMAP
000000
000000
007fe0
00ffc0
03c0f0
03c0f0
1e0000
1e0000
1e0000
3c0000
3c0000
3c0000
1e0780
1e0780
07fe00
0ffc00
000000
000000
000000
000000
ENDCHAR
STARTCHAR U+0042
ENCODING 66
SWIDTH 1000 0
DWIDTH 17 0
BBX 23 20 -3 -4
BITMAP
000000
000000
07ffe0
0fffc0
03c0f0
03c0f0
0781e0
0781e0
07ff80
0fff00
0f03c0
0f03c0
1e0780
1e0780
7ffe00
fffc00
000000
000000
000000
000000
ENDCHAR
STARTCHAR U+0041
ENCODING 65
SWIDTH 1000 0
DWIDTH 17 0
BBX 23 20 -3 -4
BITMAP
000000
000000
001e00
003c00
00f700
00f700
078780
078780
1e01e0
3c03c0
3fffc0
3fffc0
780780
780780
780780
f00f00
000000
000000
000000
000000
ENDCHAR
STARTCHAR U+0040
ENCODING 64
SWIDTH 1000 0
DWIDTH 17 0
BBX 23 20 -3 -4
BITMAP
000000
000000
01ffe0
03ffc0
0f00f0
0f00f0
1e7fe0
1e7fe0
1ee7e0
3dcfc0
3cfdc0
3cfdc0
780000
780000
1ffe00
3ffc00
000000
000000
000000
000000
ENDCHAR
STARTCHAR U+003F
ENCODING 63
SWIDTH 1000 0
DWIDTH 17 0
BBX 23 20 -3 -4
BITMAP
000000
000000
01ffe0
03ffc0
0f00f0
0f00f0
001f80
001f80
007800
00f000
00f000
00f000
000000
000000
01e000
03c000
000000
000000
000000
000000
ENDCHAR
STARTCHAR U+003E
ENCODING 62
SWIDTH 1000 0
DWIDTH 17 0
BBX 23 20 -3 -4
BITMAP
000000
000000
078000
0f0000
00f000
00f000
001e00
001e00
0001e0
0003c0
003c00
003c00
078000
078000
780000
f00000
000000
000000
000000
000000
ENDCHAR
STARTCHAR U+003D
ENCODING 61
SWIDTH 1000 0
DWIDTH 17 0
BBX 23 20 -3 -4
BITMAP
000000
000000
000000
000000
000000
000000
1fffe0
1fffe0
000000
000000
3fffc0
3fffc0
000000
000000
000000
000000
000000
000000
000000
000000
ENDCHAR
STARTCHAR U+003C
ENCODING 60
SWIDTH 1000 0
DWIDTH 17 0
BBX 23 20 -3 -4
BITMAP
000000
000000
000078
0000f0
000f00
000f00
01e000
01e000
1e0000
3c0000
03c000
03c000
007800
007800
000780
000f00
000000
000000
000000
000000
ENDCHAR
STARTCHAR U+003B
ENCODING 59
SWIDTH 1000 0
DWIDTH 17 0
BBX 23 20 -3 -4
BITMAP
000000
000000
000000
000000
00fc00
00fc00
01f800
01f800
000000
000000
000000
000000
07e000
07e000
078000
0f0000
3c0000
3c0000
000000
000000
ENDCHAR
STARTCHAR U+003A
ENCODING 58
SWIDTH 1000 0
DWIDTH 17 0
BBX 23 20 -3 -4
BITMAP
000000
000000
000000
000000
00fc00
00fc00
01f800
01f800
000000
000000
000000
000000
07e000
07e000
07e000
0fc000
000000
000000
000000
000000
ENDCHAR
STARTCHAR U+0039
ENCODING 57
SWIDTH 1000 0
DWIDTH 17 0
BBX 23 20 -3 -4
BITMAP
000000
000000
01ffe0
03ffc0
0f00f0
0f00f0
1e07e0
1e07e0
07fee0
0ffdc0
0003c0
0003c0
001e00
001e00
1ff800
3ff000
000000
000000
000000
000000
ENDCHAR
STARTCHAR U+0038
ENCODING 56
SWIDTH 1000 0
DWIDTH 17 0
BBX 23 20 -3 -4
BITMAP
000000
000000
01ffe0
03ffc0
0f00f0
0f00f0
1e01e0
1e01e0
07ff80
0fff00
3c03c0
3c03c0
780780
780780
1ffe00
3ffc00
000000
000000
000000
000000
ENDCHAR
STARTCHAR U+0037
ENCODING 55
SWIDTH 1000 0
DWIDTH 17 0
BBX 23 20 -3 -4
BITMAP
000000
000000
07fff8
0ffff0
0000f0
0000f0
000780
000780
001e00
003c00
00f000
00f000
078000
078000
078000
0f0000
000000
000000
000000
000000
ENDCHAR
STARTCHAR U+0036
ENCODING 54
SWIDTH 1000 0
DWIDTH 17 0
BBX 23 20 -3 -4
BITMAP
000000
000000
007fe0
00ffc0
03c000
03c000
1e0000
1e0000
1eff80
3dff00
3f03c0
3f03c0
780780
780780
1ffe00
3ffc00
000000
000000
000000
000000
ENDCHAR
STARTCHAR U+0035
ENCODING 53
SWIDTH 1000 0
DWIDTH 17 0
BBX 23 20 -3 -4
BITMAP
000000
000000
07fff8
0ffff0
0f0000
0f0000
1eff80
1eff80
1f81e0
3f03c0
0003c0
0003c0
780780
780780
1ffe00
3ffc00
000000
000000
000000
000000
ENDCHAR
STARTCHAR U+0034
ENCODING 52
SWIDTH 1000 0
DWIDTH 17 0
BBX 23 20 -3 -4
BITMAP
000000
000000
000780
000f00
003f00
003f00
01ee00
01ee00
079e00
0f3c00
3fffc0
3fffc0
007800
007800
007800
00f000
000000
000000
000000
000000
ENDCHAR
STARTCHAR U+0033
ENCODING 51
SWIDTH 1000 0
DWIDTH 17 0
BBX 23 20 -3 -4
BITMAP
000000
000000
07fff8
0ffff0
0003c0
0003c0
001e00
001e00
007f80
00ff00
0003c0
0003c0
780780
780780
1ffe00
3ffc00
000000
000000
000000
000000
ENDCHAR
STARTCHAR U+0032
ENCODING 50
SWIDTH 1000 0
DWIDTH 17 0
BBX 23 20 -3 -4
BITMAP
000000
000000
01ffe0
03ffc0
0f00f0
0f00f0
0001e0
0001e0
007f80
00ff00
0fc000
0fc000
780000
780000
7fff80
ffff00
000000
000000
000000
000000
ENDCHAR
STARTCHAR U+0031
ENCODING 49
SWIDTH 1000 0
DWIDTH 17 0
BBX 23 20 -3 -4
BITMAP
000000
000000
001e00
003c00
00fc00
00fc00
07b800
07b800
007800
00f000
00f000
00f000
01e000
01e000
1ffe00
3ffc00
000000
000000
000000
000000
ENDCHAR
STARTCHAR U+0030
ENCODING 48
SWIDTH 1000 0
DWIDTH 17 0
BBX 23 20 -3 -4
BITMAP
000000
000000
007f80
00ff00
03c3c0
03c3c0
1e01e0
1e01e0
1e01e0
3c03c0
3c03c0
3c03c0
1e1e00
1e1e00
07f800
0ff000
000000
000000
000000
000000
ENDCHAR
STARTCHAR U+002F
ENCODING 47
SWIDTH 1000 0
DWIDTH 17 0
BBX 23 20 -3 -4
BITMAP
000000
000000
000078
0000f0
0003c0
0003c0
001e00
001e00
007800
00f000
03c000
03c000
1e0000
1e0000
780000
f00000
000000
000000
000000
000000
ENDCHAR
STARTCHAR U+002E
ENCODING 46
SWIDTH 1000 0
DWIDTH 17 0
BBX 23 20 -3 -4
BITMAP
000000
000000
000000
000000
000000
000000
000000
000000
000000
000000
000000
000000
07e000
07e000
07e000
0fc000
000000
000000
000000
000000
ENDCHAR
STARTCHAR U+002D
ENCODING 45
SWIDTH 1000 0
DWIDTH 17 0
BBX 23 20 -3 -4
BITMAP
000000
000000
000000
000000
000000
000000
000000
000000
1fffe0
3fffc0
000000
000000
000000
000000
000000
000000
000000
000000
000000
000000
ENDCHAR
STARTCHAR U+002C
ENCODING 44
SWIDTH 1000 0
DWIDTH 17 0
BBX 23 20 -3 -4
BITMAP
000000
000000
000000
000000
000000
000000
000000
000000
000000
000000
000000
000000
07e000
07e000
078000
0f0000
3c0000
3c0000
000000
000000
ENDCHAR
STARTCHAR U+002B
ENCODING 43
SWIDTH 1000 0
DWIDTH 17 0
BBX 23 20 -3 -4
BITMAP
000000
000000
000000
000000
003c00
003c00
007800
007800
1fffe0
3fffc0
00f000
00f000
01e000
01e000
000000
000000
000000
000000
000000
000000
ENDCHAR
STARTCHAR U+002A
ENCODING 42
SWIDTH 1000 0
DWIDTH 17 0
BBX 23 20 -3 -4
BITMAP
000000
000000
000000
000000
03c3c0
03c3c0
01ee00
01ee00
1fffe0
3fffc0
03dc00
03dc00
1e1e00
1e1e00
000000
000000
000000
000000
000000
000000
ENDCHAR
STARTCHAR U+0029
ENCODING 41
SWIDTH 1000 0
DWIDTH 17 0
BBX 23 20 -3 -4
BITMAP
000000
000000
007800
00f000
003c00
003c00
001e00
001e00
001e00
003c00
003c00
003c00
01e000
01e000
078000
0f0000
000000
000000
000000
000000
ENDCHAR
STARTCHAR U+0028
ENCODING 40
SWIDTH 1000 0
DWIDTH 17 0
BBX 23 20 -3 -4
BITMAP
000000
000000
000780
000f00
003c00
003c00
01e000
01e000
01e000
03c000
03c000
03c000
01e000
01e000
007800
00f000
000000
000000
000000
000000
ENDCHAR
STARTCHAR U+0027
ENCODING 39
SWIDTH 1000 0
DWIDTH 17 0
BBX 23 20 -3 -4
BITMAP
000000
000000
001f80
003f00
003c00
003c00
01e000
01e000
000000
000000
000000
000000
000000
000000
000000
000000
000000
000000
000000
000000
ENDCHAR
STARTCHAR U+0026
ENCODING 38
SWIDTH 1000 0
DWIDTH 17 0
BBX 23 20 -3 -4
BITMAP
000000
000000
01fe00
03fc00
0f0f00
0f0f00
1e1e00
1e1e00
07f800
0ff000
3c3dc0
3c3dc0
781e00
781e00
1ffb80
3ff700
000000
000000
000000
000000
ENDCHAR
STARTCHAR U+0025
ENCODING 37
SWIDTH 1000 0
DWIDTH 17 0
BBX 23 20 -3 -4
BITMAP
000000
000000
01e078
03c0f0
0f73c0
0f73c0
079e00
079e00
007800
00f000
03cf00
03cf00
1e7b80
1e7b80
781e00
f03c00
000000
000000
000000
000000
ENDCHAR
STARTCHAR U+0024
ENCODING 36
SWIDTH 1000 0
DWIDTH 17 0
BBX 23 20 -3 -4
BITMAP
000000
000000
001e00
003c00
03ffc0
03ffc0
1e7800
1e7800
07ff80
0fff00
00f3c0
00f3c0
1ffe00
1ffe00
01e000
03c000
000000
000000
000000
000000
ENDCHAR
STARTCHAR U+0023
ENCODING 35
SWIDTH 1000 0
DWIDTH 17 0
BBX 23 20 -3 -4
BITMAP
000000
000000
01e780
03cf00
03cf00
03cf00
1fff80
1fff80
079e00
0f3c00
3fff00
3fff00
1e7800
1e7800
1e7800
3cf000
000000
000000
000000
000000
ENDCHAR
STARTCHAR U+0022
ENCODING 34
SWIDTH 1000 0
DWIDTH 17 0
BBX 23 20 -3 -4
BITMAP
000000
000000
01e780
03cf00
03cf00
03cf00
079e00
079e00
000000
000000
000000
000000
000000
000000
000000
000000
000000
000000
000000
000000
ENDCHAR
STARTCHAR U+0021
ENCODING 33
SWIDTH 1000 0
DWIDTH 17 0
BBX 23 20 -3 -4
BITMAP
000000
000000
001e00
003c00
003c00
003c00
007800
007800
007800
00f000
00f000
00f000
000000
000000
01e000
03c000
000000
000000
000000
000000
ENDCHAR
STARTCHAR U+2E2E
ENCODING 11822
SWIDTH 1000 0
DWIDTH 17 0
BBX 23 20 -3 -4
BITMAP
000000
000000
01ffe0
03ffc0
0f00f0
0f00f0
07e000
07e000
007800
00f000
00f000
00f000
000000
000000
01e000
03c000
000000
000000
000000
000000
ENDCHAR
STARTCHAR U+00b7
ENCODING 183
SWIDTH 1000 0
DWIDTH 17 0
BBX 23 20 -3 -4
BITMAP
000000
000000
000000
000000
000000
000000
000000
000000
007800
00f000
000000
000000
000000
000000
000000
000000
000000
000000
000000
000000
ENDCHAR
STARTCHAR U+00A3
ENCODING 163
SWIDTH 1000 0
DWIDTH 17 0
BBX 23 20 -3 -4
BITMAP
000000
000000
001fe0
003fc0
00f0f0
00f0f0
01e000
01e000
1ffe00
3ffc00
03c000
03c000
1ff800
1ff800
7b9f80
f73f00
3c0000
3c0000
000000
000000
ENDCHAR
STARTCHAR U+2260
ENCODING 8800
SWIDTH 1000 0
DWIDTH 17 0
BBX 23 20 -3 -4
BITMAP
000000
000000
000078
0000f0
0003c0
0003c0
1fffe0
1fffe0
007800
00f000
3fffc0
3fffc0
1e0000
1e0000
780000
f00000
000000
000000
000000
000000
ENDCHAR
STARTCHAR U+03C0
ENCODING 960
SWIDTH 1000 0
DWIDTH 17 0
BBX 23 20 -3 -4
BITMAP
000000
000000
000000
000000
000000
000000
1fffe0
1fffe0
01e780
03cf00
03cf00
03cf00
079e00
079e00
1e1e00
3c3c00
000000
000000
000000
000000
ENDCHAR
STARTCHAR U+2265
ENCODING 8805
SWIDTH 1000 0
DWIDTH 17 0
BBX 23 20 -3 -4
BITMAP
000000
000000
078000
0f0000
00f000
00f000
001e00
001e00
0001e0
0003c0
003c00
003c00
078000
078000
780000
f00000
ffff00
ffff00
000000
000000
ENDCHAR
STARTCHAR U+2264
ENCODING 8804
SWIDTH 1000 0
DWIDTH 17 0
BBX 23 20 -3 -4
BITMAP
000000
000000
000078
0000f0
000f00
000f00
01e000
01e000
1e0000
3c0000
03c000
03c000
007800
007800
000780
000f00
ffff00
ffff00
000000
000000
ENDCHAR
STARTCHAR U+2502
ENCODING 9474
SWIDTH 1000 0
DWIDTH 17 0
BBX 23 20 -3 -4
BITMAP
001e00
001e00
001e00
003c00
003c00
003c00
007800
007800
007800
00f000
00f000
00f000
01e000
01e000
01e000
03c000
03c000
03c000
078000
078000
ENDCHAR
STARTCHAR U+252C
ENCODING 9516
SWIDTH 1000 0
DWIDTH 17 0
BBX 23 20 -3 -4
BITMAP
000000
000000
000000
000000
000000
000000
000000
000000
1ffff8
3ffff0
00f000
00f000
01e000
01e000
01e000
03c000
03c000
03c000
078000
078000
ENDCHAR
STARTCHAR U+2534
ENCODING 9524
SWIDTH 1000 0
DWIDTH 17 0
BBX 23 20 -3 -4
BITMAP
001e00
001e00
001e00
003c00
003c00
003c00
007800
007800
1ffff8
3ffff0
000000
000000
000000
000000
000000
000000
000000
000000
000000
000000
ENDCHAR
STARTCHAR U+2524
ENCODING 9508
SWIDTH 1000 0
DWIDTH 17 0
BBX 23 20 -3 -4
BITMAP
001e00
001e00
001e00
003c00
003c00
003c00
007800
007800
1ff800
3ff000
00f000
00f000
01e000
01e000
01e000
03c000
03c000
03c000
078000
078000
ENDCHAR
STARTCHAR U+251C
ENCODING 9500
SWIDTH 1000 0
DWIDTH 17 0
BBX 23 20 -3 -4
BITMAP
001e00
001e00
001e00
003c00
003c00
003c00
007800
007800
007ff8
00fff0
00f000
00f000
01e000
01e000
01e000
03c000
03c000
03c000
078000
078000
ENDCHAR
STARTCHAR U+23BD
ENCODING 9149
SWIDTH 1000 0
DWIDTH 17 0
BBX 23 20 -3 -4
BITMAP
000000
000000
000000
000000
000000
000000
000000
000000
000000
000000
000000
000000
000000
000000
000000
000000
ffffc0
ffffc0
000000
000000
ENDCHAR
STARTCHAR U+23BC
ENCODING 9148
SWIDTH 1000 0
DWIDTH 17 0
BBX 23 20 -3 -4
BITMAP
000000
000000
000000
000000
000000
000000
000000
000000
000000
000000
000000
000000
7fffe0
7fffe0
000000
000000
000000
000000
000000
000000
ENDCHAR
STARTCHAR U+2500
ENCODING 9472
SWIDTH 1000 0
DWIDTH 17 0
BBX 23 20 -3 -4
BITMAP
000000
000000
000000
000000
000000
000000
000000
000000
1ffff8
3ffff0
000000
000000
000000
000000
000000
000000
000000
000000
000000
000000
ENDCHAR
STARTCHAR U+23BB
ENCODING 9147
SWIDTH 1000 0
DWIDTH 17 0
BBX 23 20 -3 -4
BITMAP
000000
000000
000000
000000
0ffffc
0ffffc
000000
000000
000000
000000
000000
000000
000000
000000
000000
000000
000000
000000
000000
000000
ENDCHAR
STARTCHAR U+23BA
ENCODING 9146
SWIDTH 1000 0
DWIDTH 17 0
BBX 23 20 -3 -4
BITMAP
07fffe
07fffe
000000
000000
000000
000000
000000
000000
000000
000000
000000
000000
000000
000000
000000
000000
000000
000000
000000
000000
ENDCHAR
STARTCHAR U+253C
ENCODING 9532
SWIDTH 1000 0
DWIDTH 17 0
BBX 23 20 -3 -4
BITMAP
001e00
001e00
001e00
003c00
003c00
003c00
007800
007800
1ffff8
3ffff0
00f000
00f000
01e000
01e000
01e000
03c000
03c000
03c000
078000
078000
ENDCHAR
STARTCHAR U+2514
ENCODING 9492
SWIDTH 1000 0
DWIDTH 17 0
BBX 23 20 -3 -4
BITMAP
001e00
001e00
001e00
003c00
003c00
003c00
007800
007800
007ff8
00fff0
000000
000000
000000
000000
000000
000000
000000
000000
000000
000000
ENDCHAR
STARTCHAR U+250C
ENCODING 9484
SWIDTH 1000 0
DWIDTH 17 0
BBX 23 20 -3 -4
BITMAP
000000
000000
000000
000000
000000
000000
000000
000000
007ff8
00fff0
00f000
00f000
01e000
01e000
01e000
03c000
03c000
03c000
078000
078000
ENDCHAR
STARTCHAR U+2510
ENCODING 9488
SWIDTH 1000 0
DWIDTH 17 0
BBX 23 20 -3 -4
BITMAP
000000
000000
000000
000000
000000
000000
000000
000000
1ff800
3ff000
00f000
00f000
01e000
01e000
01e000
03c000
03c000
03c000
078000
078000
ENDCHAR
STARTCHAR U+2518
ENCODING 9496
SWIDTH 1000 0
DWIDTH 17 0
BBX 23 20 -3 -4
BITMAP
001e00
001e00
001e00
003c00
003c00
003c00
007800
007800
1ff800
3ff000
000000
000000
000000
000000
000000
000000
000000
000000
000000
000000
ENDCHAR
STARTCHAR U+240B
ENCODING 9227
SWIDTH 1000 0
DWIDTH 17 0
BBX 23 20 -3 -4
BITMAP
000000
000000
078780
0f0f00
0f0f00
0f0f00
07b800
07b800
07b800
0f7000
03ffc0
03ffc0
007800
007800
007800
00f000
00f000
00f000
01e000
01e000
ENDCHAR
STARTCHAR U+2424
ENCODING 9252
SWIDTH 1000 0
DWIDTH 17 0
BBX 23 20 -3 -4
BITMAP
000000
000000
078780
0f0f00
0fcf00
0fcf00
1eee00
1eee00
1e7e00
3cfc00
3cfc00
3cfc00
01e000
01e000
01e000
03c000
03c000
03c000
07fe00
07fe00
ENDCHAR
STARTCHAR U+00B1
ENCODING 177
SWIDTH 1000 0
DWIDTH 17 0
BBX 23 20 -3 -4
BITMAP
000000
000000
000000
000000
003c00
003c00
007800
007800
1fffe0
3fffc0
00f000
00f000
01e000
01e000
7fff80
ffff00
000000
000000
000000
000000
ENDCHAR
STARTCHAR U+00B0
ENCODING 176
SWIDTH 1000 0
DWIDTH 17 0
BBX 23 20 -3 -4
BITMAP
000000
000000
007f80
00ff00
03c3c0
03c3c0
01fe00
01fe00
000000
000000
000000
000000
000000
000000
000000
000000
000000
000000
000000
000000
ENDCHAR
STARTCHAR U+240A
ENCODING 9226
SWIDTH 1000 0
DWIDTH 17 0
BBX 23 20 -3 -4
BITMAP
000000
000000
078000
0f0000
0f0000
0f0000
1e0000
1e0000
1e0000
3c0000
3fffc0
3fffc0
01e000
01e000
01fe00
03fc00
03c000
03c000
078000
078000
ENDCHAR
STARTCHAR U+240D
ENCODING 9229
SWIDTH 1000 0
DWIDTH 17 0
BBX 23 20 -3 -4
BITMAP
000000
000000
01fe00
03fc00
0f0000
0f0000
1e0000
1e0000
1e0000
3c0000
0fff00
0fff00
01e780
01e780
01fe00
03fc00
03cf00
03cf00
079e00
079e00
ENDCHAR
STARTCHAR U+240C
ENCODING 9228
SWIDTH 1000 0
DWIDTH 17 0
BBX 23 20 -3 -4
BITMAP
000000
000000
07fe00
0ffc00
0f0000
0f0000
1fe000
1fe000
1e0000
3c0000
3cffc0
3cffc0
01e000
01e000
01fe00
03fc00
03c000
03c000
078000
078000
ENDCHAR
STARTCHAR U+2409
ENCODING 9225
SWIDTH 1000 0
DWIDTH 17 0
BBX 23 20 -3 -4
BITMAP
000000
000000
079e00
0f3c00
0f3c00
0f3c00
1ff800
1ff800
1e7800
3cf000
3dffc0
3dffc0
007800
007800
007800
00f000
00f000
00f000
01e000
01e000
ENDCHAR
STARTCHAR U+2592
ENCODING 9618
SWIDTH 1000 0
DWIDTH 17 0
BBX 23 20 -3 -4
BITMAP
000000
000000
079e78
0f3cf0
03c3c0
03c3c0
1e79e0
1e79e0
078780
0f0f00
3cf3c0
3cf3c0
1e1e00
1e1e00
79e780
f3cf00
000000
000000
000000
000000
ENDCHAR
STARTCHAR U+25C6
ENCODING 9670
SWIDTH 1000 0
DWIDTH 17 0
BBX 23 20 -3 -4
BITMAP
000000
000000
001e00
003c00
00ff00
00ff00
07ff80
07ff80
1fffe0
3fffc0
0fff00
0fff00
07f800
07f800
01e000
03c000
000000
000000
000000
000000
ENDCHAR
STARTCHAR U+0020
ENCODING 32
SWIDTH 1000 0
DWIDTH 17 0
BBX 23 20 -3 -4
BITMAP
000000
000000
000000
000000
000000
000000
000000
000000
000000
000000
000000
000000
000000
000000
000000
000000
000000
000000
000000
000000
ENDCHAR
ENDFONT
